# xmcd
#
# Track frame offsets:
#	150
#	13731
#	26155
#	38249
#	51448
#	62795
#	71766
#	83462
#	93416
#	104441
#	115370
#	127494
#	137758
#	150634
#	161268
#	174630
#	186277
#	199095
#	211418
#	221235
#
# Disc length: 3150 seconds
#
# Revision: 1
# Processed by: cddbd v1.4PL0 Copyright (c) Steve Scherf et al.
# Submitted via: audiograbber 1.80.04
#
DISCID=2f0c4c14
DTITLE=Billie Jo Spears - Stand By Your Man
DYEAR=1900
DGENRE=
TTITLE0=Mr Walker, Its All Over
TTITLE1=Keep Me From Crying Today
TTITLE2=Look Out Your Window
TTITLE3=Tips and Tables
TTITLE4=Stand By Your Man
TTITLE5=Hold Me Tight
TTITLE6=That Man
TTITLE7=My Arms Stay Open Late
TTITLE8=You Could'nt Even Light His Candle
TTITLE9=Thanks For Hangin' Round, World
TTITLE10=What Have They Done To My Song
TTITLE11=It Makes No Difference Now
TTITLE12=He's On the Run Again
TTITLE13=I'm So Lonesome I Could Cry
TTITLE14=Fever
TTITLE15=Ease the Want In Me
TTITLE16=Dallas
TTITLE17=Sunshine
TTITLE18=Souvenirs And California Memories
TTITLE19=I'll Never Be Free
EXTD=
EXTT0=
EXTT1=
EXTT2=
EXTT3=
EXTT4=
EXTT5=
EXTT6=
EXTT7=
EXTT8=
EXTT9=
EXTT10=
EXTT11=
EXTT12=
EXTT13=
EXTT14=
EXTT15=
EXTT16=
EXTT17=
EXTT18=
EXTT19=
PLAYORDER=
